# xmcd CD database file
#
# Track frame offsets:
#	183
#	16058
#	53970
#	94558
#	134258
#	159920
#
# Disc length: 2539 seconds
#
# Revision: 0
# Processed by: cddbd v1.5.2PL0 Copyright (c) Steve Scherf et al.
# Submitted via: CDex 1.94
#
DISCID=3c09e906
DTITLE=Chick Corea - Return To Forever - Hymn Of The Seventh Galaxy
DYEAR=1973
DGENRE=Jazz
TTITLE0=Hymn Of The Seventh Galaxy
TTITLE1=After The Cosmic Rain
TTITLE2=Captain Senor Mouse
TTITLE3=Theme To The Mothership
TTITLE4=Space Circus Part I - Part II
TTITLE5=The Game Maker
EXTD=YEAR: 1973
EXTT0=
EXTT1=
EXTT2=
EXTT3=
EXTT4=
EXTT5=
PLAYORDER=
